# xmcd CD database file
#
# Track frame offsets:
#	150
#	25084
#	60967
#	83219
#	123248
#	149754
#	156579
#	177375
#
# Disc length: 2629 seconds
#
# Revision: 0
# Processed by: cddbd v1.5.2PL0 Copyright (c) Steve Scherf et al.
# Submitted via: CDex 1.51
#
DISCID=6a0a4308
DTITLE=One Two Free Fall - One Two Free Fall
DYEAR=2017
DGENRE=Jazz
TTITLE0=I don´t know why but i like it
TTITLE1=marmeládov
TTITLE2=poco a poco
TTITLE3=lonely
TTITLE4=a pique D
TTITLE5=loves 1
TTITLE6=loves 2
TTITLE7=requiem
EXTD=YEAR: 2017
EXTT0=
EXTT1=
EXTT2=
EXTT3=
EXTT4=
EXTT5=
EXTT6=
EXTT7=
PLAYORDER=
